#N canvas 747 158 858 527 10;
#X obj 377 391 dac~;
#X obj 596 248 bng 15 250 50 0 empty empty empty 17 7 0 10 -262144
-1 -1;
#X text 562 265 Panic Button;
#X msg 145 237 wet \$1;
#X floatatom 103 222 5 0 0 0 - - -, f 5;
#X obj 51 331 hsl 128 15 0 100 0 0 empty empty WET_LEVEL -2 -8 0 10
-262144 -1 -1 0 1;
#X obj 233 61 openpanel;
#X msg 236 105 open \$1;
#X obj 238 139 readsf~;
#X obj 181 45 bng 15 250 50 0 empty empty empty 17 7 0 10 -262144 -1
-1;
#X msg 181 138 1;
#X obj 347 263 mf_reverb~ 3;
#X obj 459 121 adc~;
#X connect 1 0 11 0;
#X connect 3 0 11 0;
#X connect 4 0 3 0;
#X connect 5 0 4 0;
#X connect 6 0 7 0;
#X connect 7 0 8 0;
#X connect 8 0 11 0;
#X connect 9 0 6 0;
#X connect 10 0 8 0;
#X connect 11 0 0 0;
#X connect 11 1 0 1;
